<?xml version="1.0" encoding="UTF-8"?>
<svg xmlns="http://www.w3.org/2000/svg" xmlns:xlink="http://www.w3.org/1999/xlink" viewBox="0 0 400 400" width="400px" height="400px">
<g id="surface71702212">
<path style=" stroke:none;fill-rule:nonzero;fill:rgb(100%,100%,100%);fill-opacity:1;" d="M 154 46.59375 C 124.222656 46.59375 100 70.816406 100 100.59375 C 100 123.222656 114.019531 142.574219 133.804688 150.59375 C 114.019531 158.613281 100 177.964844 100 200.59375 C 100 223.492188 114.347656 243.058594 134.507812 250.898438 C 114.265625 259.34375 100 279.324219 100 302.59375 C 100 333.476562 125.117188 358.59375 156 358.59375 C 186.882812 358.59375 212 333.476562 212 302.59375 L 212 154.59375 L 262 154.59375 C 291.777344 154.59375 316 130.367188 316 100.59375 C 316 70.816406 291.777344 46.59375 262 46.59375 Z M 262 154.59375 C 234.433594 154.59375 212 177.027344 212 204.59375 C 212 232.160156 234.433594 254.59375 262 254.59375 C 289.566406 254.59375 312 232.160156 312 204.59375 C 312 177.027344 289.566406 154.59375 262 154.59375 Z M 154 54.59375 L 204 54.59375 L 204 146.59375 L 154 146.59375 C 128.546875 146.59375 108 126.046875 108 100.59375 C 108 75.140625 128.546875 54.59375 154 54.59375 Z M 212 54.59375 L 262 54.59375 C 287.453125 54.59375 308 75.140625 308 100.59375 C 308 126.042969 287.453125 146.59375 262 146.59375 L 212 146.59375 Z M 227.4375 66.59375 C 226.714844 66.582031 226.046875 66.960938 225.683594 67.585938 C 225.316406 68.207031 225.316406 68.980469 225.683594 69.601562 C 226.046875 70.226562 226.714844 70.605469 227.4375 70.59375 L 250 70.59375 C 250.722656 70.605469 251.390625 70.226562 251.753906 69.601562 C 252.121094 68.980469 252.121094 68.207031 251.753906 67.585938 C 251.390625 66.960938 250.722656 66.582031 250 66.59375 Z M 262 66.59375 C 261.277344 66.582031 260.609375 66.960938 260.246094 67.585938 C 259.878906 68.207031 259.878906 68.980469 260.246094 69.601562 C 260.609375 70.226562 261.277344 70.605469 262 70.59375 C 278.589844 70.59375 292 84.003906 292 100.59375 C 291.988281 101.316406 292.367188 101.984375 292.992188 102.347656 C 293.613281 102.714844 294.386719 102.714844 295.007812 102.347656 C 295.632812 101.984375 296.011719 101.316406 296 100.59375 C 296 81.839844 280.753906 66.59375 262 66.59375 Z M 154 154.59375 L 204 154.59375 L 204 246.59375 L 154 246.59375 C 128.546875 246.59375 108 226.046875 108 200.59375 C 108 175.140625 128.546875 154.59375 154 154.59375 Z M 262 162.59375 C 285.242188 162.59375 304 181.351562 304 204.59375 C 304 227.835938 285.242188 246.59375 262 246.59375 C 238.757812 246.59375 220 227.835938 220 204.59375 C 220 181.351562 238.757812 162.59375 262 162.59375 Z M 262 174.59375 C 252.789062 174.59375 244.523438 178.765625 239.023438 185.3125 C 238.535156 185.855469 238.382812 186.621094 238.625 187.3125 C 238.867188 188 239.464844 188.503906 240.1875 188.621094 C 240.90625 188.742188 241.636719 188.457031 242.085938 187.882812 C 246.855469 182.207031 253.996094 178.59375 262 178.59375 C 262.722656 178.605469 263.390625 178.226562 263.753906 177.601562 C 264.121094 176.980469 264.121094 176.207031 263.753906 175.585938 C 263.390625 174.960938 262.722656 174.582031 262 174.59375 Z M 233.96875 202.570312 C 232.867188 202.585938 231.988281 203.492188 232 204.59375 C 232 209.191406 233.039062 213.554688 234.890625 217.453125 C 235.179688 218.125 235.816406 218.585938 236.542969 218.652344 C 237.273438 218.71875 237.980469 218.382812 238.386719 217.773438 C 238.796875 217.164062 238.839844 216.382812 238.5 215.734375 C 236.894531 212.359375 236 208.589844 236 204.59375 C 236.007812 204.054688 235.792969 203.535156 235.410156 203.152344 C 235.027344 202.773438 234.507812 202.5625 233.96875 202.570312 Z M 289.96875 202.570312 C 288.867188 202.585938 287.988281 203.492188 288 204.59375 C 288 207.179688 287.625 209.671875 286.921875 212.023438 C 286.71875 212.707031 286.894531 213.449219 287.386719 213.96875 C 287.878906 214.488281 288.609375 214.707031 289.304688 214.539062 C 290 214.375 290.554688 213.847656 290.757812 213.164062 C 291.570312 210.445312 292 207.566406 292 204.59375 C 292.007812 204.054688 291.792969 203.535156 291.410156 203.152344 C 291.027344 202.773438 290.507812 202.5625 289.96875 202.570312 Z M 283.4375 220.578125 C 282.847656 220.585938 282.289062 220.855469 281.914062 221.3125 C 277.144531 226.988281 270.003906 230.59375 262 230.59375 C 258.003906 230.59375 254.234375 229.699219 250.859375 228.09375 C 250.210938 227.753906 249.429688 227.796875 248.820312 228.207031 C 248.210938 228.613281 247.875 229.320312 247.941406 230.050781 C 248.007812 230.777344 248.46875 231.414062 249.140625 231.703125 C 253.039062 233.554688 257.402344 234.59375 262 234.59375 C 271.210938 234.59375 279.476562 230.429688 284.976562 223.882812 C 285.488281 223.285156 285.605469 222.445312 285.273438 221.734375 C 284.941406 221.019531 284.222656 220.570312 283.4375 220.578125 Z M 156 254.59375 L 204 254.59375 L 204 302.59375 C 204 329.152344 182.558594 350.59375 156 350.59375 C 129.441406 350.59375 108 329.152344 108 302.59375 C 108 276.035156 129.441406 254.59375 156 254.59375 Z M 189.96875 266.570312 C 188.867188 266.585938 187.988281 267.492188 188 268.59375 L 188 276.59375 C 187.988281 277.316406 188.367188 277.984375 188.992188 278.347656 C 189.613281 278.714844 190.386719 278.714844 191.007812 278.347656 C 191.632812 277.984375 192.011719 277.316406 192 276.59375 L 192 268.59375 C 192.007812 268.054688 191.792969 267.535156 191.410156 267.152344 C 191.027344 266.773438 190.507812 266.5625 189.96875 266.570312 Z M 189.96875 286.570312 C 188.867188 286.585938 187.988281 287.492188 188 288.59375 L 188 302.59375 C 188 304.523438 187.828125 306.410156 187.5 308.242188 C 187.359375 308.953125 187.613281 309.679688 188.164062 310.148438 C 188.714844 310.621094 189.476562 310.753906 190.152344 310.503906 C 190.832031 310.253906 191.324219 309.660156 191.4375 308.945312 C 191.804688 306.882812 192 304.757812 192 302.59375 L 192 288.59375 C 192.007812 288.054688 191.792969 287.535156 191.410156 287.152344 C 191.027344 286.773438 190.507812 286.5625 189.96875 286.570312 Z M 121.96875 300.570312 C 120.867188 300.585938 119.988281 301.492188 120 302.59375 C 120 322.449219 136.144531 338.59375 156 338.59375 C 161.28125 338.59375 166.308594 337.453125 170.828125 335.40625 C 171.492188 335.121094 171.949219 334.496094 172.023438 333.777344 C 172.097656 333.054688 171.777344 332.351562 171.1875 331.933594 C 170.59375 331.519531 169.824219 331.453125 169.171875 331.765625 C 165.15625 333.582031 160.703125 334.59375 156 334.59375 C 138.304688 334.59375 124 320.289062 124 302.59375 C 124.007812 302.054688 123.792969 301.535156 123.410156 301.152344 C 123.027344 300.773438 122.507812 300.5625 121.96875 300.570312 Z M 184.75 318.570312 C 184.089844 318.609375 183.488281 318.972656 183.148438 319.539062 C 181.871094 321.585938 180.363281 323.480469 178.664062 325.1875 C 178.144531 325.691406 177.933594 326.4375 178.121094 327.136719 C 178.304688 327.835938 178.851562 328.382812 179.554688 328.5625 C 180.253906 328.742188 181 328.53125 181.5 328.007812 C 183.40625 326.089844 185.105469 323.960938 186.546875 321.65625 C 186.9375 321.054688 186.976562 320.289062 186.644531 319.652344 C 186.316406 319.011719 185.671875 318.601562 184.953125 318.570312 C 184.886719 318.566406 184.816406 318.566406 184.75 318.570312 Z M 184.75 318.570312 "/>
</g>
</svg>
