<?xml version="1.0" encoding="UTF-8"?>
<svg xmlns="http://www.w3.org/2000/svg" viewBox="0 0 512 512" width="512px" height="512px">
<g id="surface5502818">
<path style=" stroke:none;fill-rule:nonzero;fill:rgb(100%,100%,100%);fill-opacity:1;" d="M 191.921875 24 C 189.84375 24.03125 187.859375 24.875 186.390625 26.34375 L 82.34375 130.390625 C 79.222656 133.515625 79.222656 138.578125 82.34375 141.703125 L 138.296875 197.65625 C 145.824219 205.183594 152.855469 214.121094 156.3125 225.359375 C 159.769531 236.597656 159.984375 250.398438 152.53125 269.03125 C 151.117188 272.5625 152.378906 276.597656 155.554688 278.691406 C 158.730469 280.78125 162.941406 280.351562 165.625 277.65625 L 301.625 141.578125 C 304.742188 138.449219 304.738281 133.386719 301.609375 130.265625 L 197.703125 26.34375 C 196.171875 24.8125 194.085938 23.96875 191.921875 24 Z M 192.046875 43.3125 L 284.640625 135.921875 L 174.125 246.5 C 174.835938 237.007812 173.96875 228.3125 171.609375 220.640625 C 167.066406 205.878906 158.082031 194.816406 149.609375 186.34375 L 99.3125 136.046875 Z M 319.828125 152 C 317.746094 152.027344 315.753906 152.871094 314.28125 154.34375 L 266.828125 201.796875 C 266.824219 201.800781 266.816406 201.808594 266.8125 201.8125 C 266.402344 202.148438 266.023438 202.527344 265.6875 202.9375 C 265.683594 202.941406 265.675781 202.949219 265.671875 202.953125 L 210.84375 257.796875 C 210.832031 257.800781 210.824219 257.808594 210.8125 257.8125 C 210.402344 258.148438 210.023438 258.527344 209.6875 258.9375 C 209.683594 258.949219 209.675781 258.957031 209.671875 258.96875 L 154.859375 313.78125 C 154.84375 313.792969 154.828125 313.800781 154.8125 313.8125 C 154.402344 314.148438 154.023438 314.527344 153.6875 314.9375 C 153.675781 314.953125 153.667969 314.96875 153.65625 314.984375 L 98.21875 370.421875 C 95.097656 373.546875 95.097656 378.609375 98.21875 381.734375 L 202.140625 485.65625 C 205.265625 488.777344 210.328125 488.777344 213.453125 485.65625 L 260.296875 438.8125 C 261.367188 438.15625 262.265625 437.257812 262.921875 436.1875 L 316.296875 382.8125 C 317.367188 382.15625 318.265625 381.257812 318.921875 380.1875 L 372.296875 326.8125 C 373.367188 326.15625 374.265625 325.257812 374.921875 324.1875 L 429.53125 269.578125 C 432.652344 266.453125 432.652344 261.390625 429.53125 258.265625 L 374.640625 203.390625 C 374.636719 203.378906 374.628906 203.371094 374.625 203.359375 C 374.105469 202.640625 373.472656 202.011719 372.75 201.5 L 325.59375 154.34375 C 324.066406 152.816406 321.988281 151.972656 319.828125 152 Z M 319.9375 171.3125 L 348.625 200 L 291.25 200 Z M 275.25 216 L 364.625 216 L 404.625 256 L 235.25 256 Z M 219.25 272 L 404.46875 272 L 364.46875 312 L 179.265625 312 Z M 450.0625 282.578125 C 448.015625 282.578125 445.96875 283.359375 444.40625 284.921875 C 441.277344 288.050781 441.277344 293.105469 444.40625 296.234375 L 455.71875 307.546875 C 457.277344 309.105469 459.328125 309.890625 461.375 309.890625 C 463.421875 309.890625 465.472656 309.113281 467.03125 307.546875 C 470.160156 304.417969 470.160156 299.363281 467.03125 296.234375 L 455.71875 284.921875 C 454.15625 283.359375 452.109375 282.578125 450.0625 282.578125 Z M 419.765625 312.890625 C 417.71875 312.890625 415.671875 313.671875 414.109375 315.234375 C 410.980469 318.363281 410.980469 323.417969 414.109375 326.546875 L 425.421875 337.859375 C 426.980469 339.417969 429.03125 340.203125 431.078125 340.203125 C 433.125 340.203125 435.175781 339.425781 436.734375 337.859375 C 439.863281 334.730469 439.863281 329.675781 436.734375 326.546875 L 425.421875 315.234375 C 423.859375 313.671875 421.8125 312.890625 419.765625 312.890625 Z M 163.265625 328 L 348.46875 328 L 308.484375 368 L 123.265625 368 Z M 389.453125 343.1875 C 387.40625 343.1875 385.359375 343.96875 383.796875 345.53125 C 380.667969 348.660156 380.667969 353.714844 383.796875 356.84375 L 395.109375 368.15625 C 396.667969 369.714844 398.71875 370.5 400.765625 370.5 C 402.8125 370.5 404.855469 369.714844 406.421875 368.15625 C 409.550781 365.027344 409.550781 359.972656 406.421875 356.84375 L 395.109375 345.53125 C 393.546875 343.96875 391.5 343.1875 389.453125 343.1875 Z M 359.140625 373.5 C 357.09375 373.5 355.042969 374.28125 353.484375 375.84375 C 350.355469 378.972656 350.355469 384.035156 353.484375 387.15625 L 364.8125 398.46875 C 366.371094 400.027344 368.421875 400.8125 370.46875 400.8125 C 372.515625 400.8125 374.566406 400.027344 376.125 398.46875 C 379.253906 395.339844 379.253906 390.277344 376.125 387.15625 L 364.796875 375.84375 C 363.234375 374.28125 361.1875 373.5 359.140625 373.5 Z M 123.109375 384 L 292.484375 384 L 252.484375 424 L 163.109375 424 Z M 328.84375 403.796875 C 326.796875 403.796875 324.75 404.578125 323.1875 406.140625 C 320.058594 409.269531 320.058594 414.324219 323.1875 417.453125 L 334.5 428.765625 C 336.058594 430.324219 338.109375 431.109375 340.15625 431.109375 C 342.203125 431.109375 344.253906 430.324219 345.8125 428.765625 C 348.941406 425.636719 348.941406 420.582031 345.8125 417.453125 L 334.5 406.140625 C 332.9375 404.578125 330.890625 403.796875 328.84375 403.796875 Z M 298.53125 434.109375 C 296.484375 434.109375 294.433594 434.890625 292.875 436.453125 C 289.746094 439.582031 289.746094 444.644531 292.875 447.765625 L 304.203125 459.078125 C 305.761719 460.636719 307.8125 461.421875 309.859375 461.421875 C 311.90625 461.421875 313.964844 460.636719 315.515625 459.078125 C 318.644531 455.949219 318.644531 450.886719 315.515625 447.765625 L 304.1875 436.453125 C 302.625 434.890625 300.578125 434.109375 298.53125 434.109375 Z M 179.109375 440 L 236.484375 440 L 207.796875 468.6875 Z M 179.109375 440 "/>
</g>
</svg>
