<?xml version="1.0" encoding="UTF-8"?>
<svg xmlns="http://www.w3.org/2000/svg" viewBox="0 0 512 512" width="512px" height="512px">
<g id="surface5439197">
<path style=" stroke:none;fill-rule:nonzero;fill:rgb(100%,100%,100%);fill-opacity:1;" d="M 56.15625 32 C 41.84375 32 30.445312 44.710938 32.171875 58.921875 L 75.90625 420.875 C 77.84375 436.894531 89.296875 450.21875 104.859375 454.640625 L 245.140625 494.46875 C 252.207031 496.472656 259.695312 496.519531 266.796875 494.59375 L 414.328125 454.625 C 430.394531 450.273438 442.183594 436.460938 443.84375 419.9375 L 480.234375 58.4375 C 481.652344 44.378906 470.332031 32 456.203125 32 Z M 56.15625 48 L 456.203125 48 C 461.191406 48 464.800781 52.003906 464.3125 56.84375 L 463.15625 68.328125 C 461.785156 65.570312 458.953125 63.84375 455.875 63.890625 C 451.460938 63.960938 447.941406 67.585938 448 72 L 448 88 C 447.960938 90.980469 449.585938 93.738281 452.210938 95.152344 C 454.839844 96.5625 458.035156 96.394531 460.5 94.71875 L 427.921875 418.328125 C 427.921875 418.332031 427.921875 418.339844 427.921875 418.34375 C 426.925781 428.285156 419.914062 436.546875 410.15625 439.1875 C 410.152344 439.1875 410.144531 439.1875 410.140625 439.1875 L 262.609375 479.15625 C 258.316406 480.320312 253.792969 480.292969 249.515625 479.078125 L 109.234375 439.25 C 99.789062 436.566406 92.960938 428.582031 91.796875 418.953125 L 52.703125 95.390625 C 55.195312 96.519531 58.089844 96.292969 60.378906 94.796875 C 62.667969 93.296875 64.035156 90.734375 64 88 L 64 72 C 64.03125 69.835938 63.183594 67.753906 61.652344 66.226562 C 60.121094 64.699219 58.039062 63.855469 55.875 63.890625 C 53.234375 63.933594 50.78125 65.277344 49.328125 67.484375 L 48.0625 57 C 48.0625 56.996094 48.0625 56.988281 48.0625 56.984375 C 47.46875 52.105469 51.109375 48 56.15625 48 Z M 95.875 63.890625 C 91.460938 63.960938 87.941406 67.585938 88 72 L 88 88 C 87.960938 90.886719 89.476562 93.570312 91.96875 95.023438 C 94.457031 96.476562 97.542969 96.476562 100.03125 95.023438 C 102.523438 93.570312 104.039062 90.886719 104 88 L 104 72 C 104.03125 69.835938 103.183594 67.753906 101.652344 66.226562 C 100.121094 64.699219 98.039062 63.855469 95.875 63.890625 Z M 135.875 63.890625 C 131.460938 63.960938 127.941406 67.585938 128 72 L 128 88 C 127.960938 90.886719 129.476562 93.570312 131.96875 95.023438 C 134.457031 96.476562 137.542969 96.476562 140.03125 95.023438 C 142.523438 93.570312 144.039062 90.886719 144 88 L 144 72 C 144.03125 69.835938 143.183594 67.753906 141.652344 66.226562 C 140.121094 64.699219 138.039062 63.855469 135.875 63.890625 Z M 175.875 63.890625 C 171.460938 63.960938 167.941406 67.585938 168 72 L 168 88 C 167.960938 90.886719 169.476562 93.570312 171.96875 95.023438 C 174.457031 96.476562 177.542969 96.476562 180.03125 95.023438 C 182.523438 93.570312 184.039062 90.886719 184 88 L 184 72 C 184.03125 69.835938 183.183594 67.753906 181.652344 66.226562 C 180.121094 64.699219 178.039062 63.855469 175.875 63.890625 Z M 215.875 63.890625 C 211.460938 63.960938 207.941406 67.585938 208 72 L 208 88 C 207.960938 90.886719 209.476562 93.570312 211.96875 95.023438 C 214.457031 96.476562 217.542969 96.476562 220.03125 95.023438 C 222.523438 93.570312 224.039062 90.886719 224 88 L 224 72 C 224.03125 69.835938 223.183594 67.753906 221.652344 66.226562 C 220.121094 64.699219 218.039062 63.855469 215.875 63.890625 Z M 255.875 63.890625 C 251.460938 63.960938 247.941406 67.585938 248 72 L 248 88 C 247.960938 90.886719 249.476562 93.570312 251.96875 95.023438 C 254.457031 96.476562 257.542969 96.476562 260.03125 95.023438 C 262.523438 93.570312 264.039062 90.886719 264 88 L 264 72 C 264.03125 69.835938 263.183594 67.753906 261.652344 66.226562 C 260.121094 64.699219 258.039062 63.855469 255.875 63.890625 Z M 295.875 63.890625 C 291.460938 63.960938 287.941406 67.585938 288 72 L 288 88 C 287.960938 90.886719 289.476562 93.570312 291.96875 95.023438 C 294.457031 96.476562 297.542969 96.476562 300.03125 95.023438 C 302.523438 93.570312 304.039062 90.886719 304 88 L 304 72 C 304.03125 69.835938 303.183594 67.753906 301.652344 66.226562 C 300.121094 64.699219 298.039062 63.855469 295.875 63.890625 Z M 335.875 63.890625 C 331.460938 63.960938 327.941406 67.585938 328 72 L 328 88 C 327.960938 90.886719 329.476562 93.570312 331.96875 95.023438 C 334.457031 96.476562 337.542969 96.476562 340.03125 95.023438 C 342.523438 93.570312 344.039062 90.886719 344 88 L 344 72 C 344.03125 69.835938 343.183594 67.753906 341.652344 66.226562 C 340.121094 64.699219 338.039062 63.855469 335.875 63.890625 Z M 375.875 63.890625 C 371.460938 63.960938 367.941406 67.585938 368 72 L 368 88 C 367.960938 90.886719 369.476562 93.570312 371.96875 95.023438 C 374.457031 96.476562 377.542969 96.476562 380.03125 95.023438 C 382.523438 93.570312 384.039062 90.886719 384 88 L 384 72 C 384.03125 69.835938 383.183594 67.753906 381.652344 66.226562 C 380.121094 64.699219 378.039062 63.855469 375.875 63.890625 Z M 415.875 63.890625 C 411.460938 63.960938 407.941406 67.585938 408 72 L 408 88 C 407.960938 90.886719 409.476562 93.570312 411.96875 95.023438 C 414.457031 96.476562 417.542969 96.476562 420.03125 95.023438 C 422.523438 93.570312 424.039062 90.886719 424 88 L 424 72 C 424.03125 69.835938 423.183594 67.753906 421.652344 66.226562 C 420.121094 64.699219 418.039062 63.855469 415.875 63.890625 Z M 136 128 C 126.328125 128 118.691406 136.921875 120.203125 146.484375 L 140.359375 274.5 C 141.582031 282.21875 148.355469 288 156.171875 288 L 310.640625 288 L 305.109375 334.875 L 256.875 349.578125 L 214.71875 335.296875 L 211.921875 317.515625 C 211.921875 317.511719 211.921875 317.503906 211.921875 317.5 C 210.699219 309.78125 203.941406 304 196.125 304 L 163.734375 304 C 154.054688 304 146.425781 312.925781 147.921875 322.484375 C 147.921875 322.488281 147.921875 322.496094 147.921875 322.5 L 156.03125 374 C 156.945312 379.8125 161.042969 384.691406 166.640625 386.578125 L 251.0625 415.171875 C 251.066406 415.171875 251.074219 415.171875 251.078125 415.171875 C 252.695312 415.714844 254.40625 416 256.109375 416 C 257.65625 416 259.195312 415.765625 260.6875 415.3125 L 353.84375 386.9375 C 359.855469 385.105469 364.257812 379.839844 364.984375 373.578125 L 380.53125 241.890625 C 381.652344 232.511719 374.105469 224 364.65625 224 L 197.203125 224 L 192.15625 192 L 372.21875 192 C 380.257812 192 387.167969 185.867188 388.109375 177.875 L 388.109375 177.859375 L 391.90625 145.71875 C 393.003906 136.417969 385.507812 128 376.140625 128 Z M 136 144 L 376 144 L 372.21875 176 L 192.15625 176 C 182.476562 176 174.847656 184.9375 176.359375 194.5 L 181.390625 226.5 C 182.613281 234.21875 189.386719 240 197.203125 240 L 364.640625 240 L 349.109375 371.640625 L 256.109375 399.984375 L 171.828125 371.4375 L 163.734375 320.015625 L 163.734375 320 L 196.125 320 L 199.671875 342.5625 C 200.136719 345.5 202.195312 347.9375 205.015625 348.890625 L 254.1875 365.546875 C 255.769531 366.082031 257.480469 366.109375 259.078125 365.625 L 314.765625 348.65625 C 317.808594 347.734375 320.019531 345.097656 320.390625 341.9375 L 326.53125 289.875 C 327.636719 280.5 320.089844 272 310.640625 272 L 156.171875 272 Z M 336.046875 418.078125 C 335.324219 418.085938 334.601562 418.191406 333.90625 418.390625 L 317.90625 422.71875 C 315.074219 423.402344 312.839844 425.570312 312.070312 428.378906 C 311.296875 431.183594 312.113281 434.191406 314.199219 436.222656 C 316.28125 438.257812 319.304688 438.996094 322.09375 438.15625 L 338.09375 433.828125 C 342.007812 432.824219 344.558594 429.054688 344.039062 425.046875 C 343.515625 421.039062 340.089844 418.050781 336.046875 418.078125 Z M 215.8125 428.265625 C 211.824219 428.320312 208.484375 431.300781 207.980469 435.257812 C 207.476562 439.210938 209.964844 442.933594 213.8125 443.984375 L 256.1875 456.015625 L 290.09375 446.828125 C 292.925781 446.144531 295.160156 443.976562 295.929688 441.167969 C 296.703125 438.363281 295.886719 435.355469 293.800781 433.324219 C 291.71875 431.289062 288.695312 430.550781 285.90625 431.390625 L 256.296875 439.421875 L 218.1875 428.59375 C 217.417969 428.367188 216.617188 428.253906 215.8125 428.265625 Z M 215.8125 428.265625 "/>
</g>
</svg>
