<?xml version="1.0" encoding="UTF-8"?>
<svg xmlns="http://www.w3.org/2000/svg" viewBox="0 0 512 512" width="512px" height="512px">
<g id="surface5436872">
<path style=" stroke:none;fill-rule:nonzero;fill:rgb(100%,100%,100%);fill-opacity:1;" d="M 255.90625 48 C 250.066406 48 244.226562 49.433594 239.1875 52.3125 L 80.625 143.84375 C 70.386719 149.765625 64 160.972656 64 172.8125 L 64 338.875 C 64 350.875 70.386719 361.921875 80.625 367.84375 L 122.25 391.84375 C 142.410156 401.765625 149.597656 401.75 158.71875 401.75 C 188.640625 401.75 205.75 383.671875 205.75 352.3125 L 205.75 180.96875 C 205.75 178.410156 203.683594 176.3125 201.125 176.3125 L 181.125 176.3125 C 178.40625 176.3125 176.46875 178.410156 176.46875 180.96875 L 176.46875 352.15625 C 176.46875 366.234375 161.925781 379.992188 138.40625 368.3125 L 94.875 343.1875 C 93.273438 342.386719 92.3125 340.636719 92.3125 338.875 L 92.3125 172.96875 C 92.3125 171.046875 93.273438 169.429688 94.875 168.46875 L 253.4375 76.96875 C 254.878906 76.007812 256.804688 76.007812 258.40625 76.96875 L 416.96875 168.46875 C 418.570312 169.429688 419.53125 171.050781 419.53125 172.8125 L 419.53125 338.875 C 419.53125 340.636719 418.566406 342.386719 417.125 343.1875 L 258.40625 434.875 C 256.964844 435.675781 254.878906 435.675781 253.4375 434.875 L 212.625 410.71875 C 211.503906 409.917969 209.933594 409.765625 208.8125 410.40625 C 197.453125 416.804688 195.371094 417.601562 184.8125 421.28125 C 182.253906 422.082031 178.25 423.675781 186.25 428.15625 L 239.1875 459.53125 C 244.308594 462.410156 250.082031 464 255.84375 464 C 261.765625 464 267.503906 462.410156 272.625 459.53125 L 431.375 367.84375 C 441.613281 361.921875 448 350.875 448 338.875 L 448 172.96875 C 448 160.96875 441.613281 149.921875 431.375 144 L 272.625 52.3125 C 267.585938 49.433594 261.746094 48 255.90625 48 Z M 298.5625 176.09375 C 253.28125 176.09375 226.25 195.28125 226.25 227.28125 C 226.25 262 253.105469 271.585938 296.625 275.90625 C 348.625 281.027344 352.625 288.730469 352.625 298.96875 C 352.625 316.570312 338.410156 324.09375 304.96875 324.09375 C 262.890625 324.09375 253.601562 313.519531 250.5625 292.71875 C 250.242188 290.480469 248.332031 288.875 246.09375 288.875 L 225.4375 288.875 C 222.878906 288.875 220.96875 290.976562 220.96875 293.375 C 220.96875 320.09375 235.527344 351.90625 304.96875 351.90625 C 355.207031 351.90625 384 332.089844 384 297.53125 C 384 263.292969 360.796875 254.152344 312.15625 247.59375 C 262.714844 241.195312 257.75 237.832031 257.75 226.3125 C 257.75 216.710938 262.082031 204.09375 298.5625 204.09375 C 331.042969 204.09375 343.195312 211.109375 348.15625 233.03125 C 348.636719 235.109375 350.386719 236.71875 352.625 236.71875 L 373.28125 236.71875 C 374.5625 236.71875 375.664062 236.085938 376.625 235.125 C 377.425781 234.324219 377.910156 233.035156 377.75 231.59375 C 374.550781 193.832031 349.441406 176.09375 298.5625 176.09375 Z M 298.5625 176.09375 "/>
</g>
</svg>
