<?xml version="1.0" encoding="UTF-8"?>
<svg xmlns="http://www.w3.org/2000/svg" xmlns:xlink="http://www.w3.org/1999/xlink" viewBox="0 0 144 144" width="144px" height="144px">
<g id="surface53174377">
<path style=" stroke:none;fill-rule:nonzero;fill:rgb(100%,100%,100%);fill-opacity:1;" d="M 26.796875 33.792969 L 79.597656 13.675781 C 82.464844 12.585938 85.597656 12.398438 88.574219 13.144531 L 113.183594 19.296875 C 117.1875 20.296875 120 23.898438 120 28.027344 L 120 115.972656 C 120 120.101562 117.1875 123.703125 113.183594 124.699219 L 88.574219 130.855469 C 85.597656 131.597656 82.464844 131.410156 79.597656 130.320312 L 21 108 L 84 117 L 84 30 L 45.980469 43.578125 C 43.59375 44.429688 42 46.691406 42 49.226562 L 42 99 L 21 108 L 21 42.199219 C 21 38.46875 23.308594 35.121094 26.796875 33.792969 Z M 26.796875 33.792969 "/>
</g>
</svg>
