<?xml version="1.0" encoding="UTF-8"?>
<svg xmlns="http://www.w3.org/2000/svg" viewBox="0 0 512 512" width="512px" height="512px">
<g id="surface5440990">
<path style=" stroke:none;fill-rule:nonzero;fill:rgb(100%,100%,100%);fill-opacity:1;" d="M 72 48 C 58.78125 48 48 58.78125 48 72 L 48 440 C 48 453.21875 58.78125 464 72 464 L 440 464 C 453.21875 464 464 453.21875 464 440 L 464 72 C 464 58.78125 453.21875 48 440 48 Z M 72 64 L 440 64 C 444.40625 64 448 67.59375 448 72 L 448 440 C 448 444.40625 444.40625 448 440 448 L 72 448 C 67.59375 448 64 444.40625 64 440 L 64 72 C 64 67.59375 67.59375 64 72 64 Z M 112 96 C 103.1875 96 96 103.1875 96 112 L 96 400 C 96 408.8125 103.1875 416 112 416 L 136 416 C 140.40625 416 144 412.4375 144 408 C 144 403.5625 140.40625 400 136 400 L 112 400 L 112 112 L 400 112 L 400 400 L 376 400 C 371.59375 400 368 403.5625 368 408 C 368 412.4375 371.59375 416 376 416 L 400 416 C 408.8125 416 416 408.8125 416 400 L 416 112 C 416 103.1875 408.8125 96 400 96 Z M 184 176 C 179.59375 176 176 179.5625 176 184 L 176 328 C 176 332.4375 179.59375 336 184 336 C 188.40625 336 192 332.4375 192 328 L 192 272 L 216 272 C 238.0625 272 256 254.0625 256 232 L 256 216 C 256 193.9375 238.0625 176 216 176 Z M 192 192 L 216 192 C 229.21875 192 240 202.78125 240 216 L 240 232 C 240 245.21875 229.21875 256 216 256 L 192 256 Z M 302.71875 224 C 285.78125 224 272 237.78125 272 254.71875 C 272 268.5 280.78125 280.6875 293.875 285.0625 L 309.0625 290.125 C 315.59375 292.3125 320 298.40625 320 305.28125 C 320 313.40625 313.40625 320 305.28125 320 L 302.71875 320 C 298.25 320 294.09375 318.03125 291.28125 314.59375 C 288.5 311.15625 283.46875 310.65625 280.03125 313.40625 C 276.625 316.21875 276.09375 321.25 278.875 324.6875 C 284.75 331.875 293.4375 336 302.71875 336 L 305.28125 336 C 322.21875 336 336 322.21875 336 305.28125 C 336 291.5 327.21875 279.3125 314.125 274.9375 L 298.9375 269.875 C 292.40625 267.6875 288 261.59375 288 254.71875 C 288 246.59375 294.59375 240 302.71875 240 L 305.28125 240 C 309.78125 240 313.96875 242 316.78125 245.5 C 319.53125 248.96875 324.5625 249.53125 328.03125 246.75 C 331.46875 244 332.03125 238.96875 329.28125 235.5 C 323.40625 228.1875 314.6875 224 305.28125 224 Z M 176 384 C 171.59375 384 168 387.5625 168 392 L 168 408 C 168 412.4375 171.59375 416 176 416 C 180.40625 416 184 412.4375 184 408 L 184 392 C 184 387.5625 180.40625 384 176 384 Z M 216 384 C 211.59375 384 208 387.5625 208 392 L 208 408 C 208 412.4375 211.59375 416 216 416 C 220.40625 416 224 412.4375 224 408 L 224 392 C 224 387.5625 220.40625 384 216 384 Z M 256 384 C 251.59375 384 248 387.5625 248 392 L 248 408 C 248 412.4375 251.59375 416 256 416 C 260.40625 416 264 412.4375 264 408 L 264 392 C 264 387.5625 260.40625 384 256 384 Z M 296 384 C 291.59375 384 288 387.5625 288 392 L 288 408 C 288 412.4375 291.59375 416 296 416 C 300.40625 416 304 412.4375 304 408 L 304 392 C 304 387.5625 300.40625 384 296 384 Z M 336 384 C 331.59375 384 328 387.5625 328 392 L 328 408 C 328 412.4375 331.59375 416 336 416 C 340.40625 416 344 412.4375 344 408 L 344 392 C 344 387.5625 340.40625 384 336 384 Z M 336 384 "/>
</g>
</svg>
