<?xml version="1.0" encoding="UTF-8"?>
<svg xmlns="http://www.w3.org/2000/svg" viewBox="0 0 512 512" width="512px" height="512px">
<g id="surface6032874">
<path style=" stroke:none;fill-rule:nonzero;fill:rgb(100%,100%,100%);fill-opacity:1;" d="M 255.046875 24 C 221.292969 24.109375 187.035156 31.621094 154.640625 47.359375 C 99.328125 74.230469 56.964844 121.980469 36.859375 180.09375 C -5.09375 301.101562 59 433.195312 180.015625 475.140625 C 301.03125 517.085938 433.125 452.992188 475.078125 331.984375 C 495.429688 273.824219 491.628906 209.921875 464.515625 154.578125 C 424.292969 71.796875 341.308594 23.722656 255.046875 24 Z M 252.265625 39.890625 C 276.910156 39.464844 302.046875 43.285156 326.6875 51.828125 C 380.777344 70.582031 425.210938 110.042969 450.203125 161.546875 C 475.203125 213.050781 478.695312 272.386719 459.953125 326.484375 C 420.90625 439.125 297.945312 498.789062 185.296875 459.75 C 72.648438 420.710938 12.992188 297.742188 52.03125 185.09375 C 82.53125 97.085938 164.253906 41.414062 252.265625 39.890625 Z M 253.109375 66.546875 C 246.429688 66.449219 239.75 66.71875 233.09375 67.34375 C 228.679688 67.488281 225.222656 71.1875 225.375 75.59375 C 225.519531 80.007812 229.21875 83.464844 233.625 83.3125 C 233.953125 83.304688 234.296875 83.273438 234.625 83.21875 C 240.640625 82.59375 246.679688 82.289062 252.71875 82.3125 C 257.09375 81.703125 260.140625 77.664062 259.53125 73.296875 C 259.058594 69.90625 256.476562 67.1875 253.109375 66.546875 Z M 200.421875 73.9375 C 199.390625 73.824219 198.308594 73.917969 197.25 74.234375 C 140.953125 91.363281 96.207031 134.300781 76.78125 189.84375 C 75.214844 193.972656 77.292969 198.589844 81.421875 200.15625 C 85.550781 201.722656 90.167969 199.660156 91.734375 195.53125 C 91.789062 195.394531 91.835938 195.253906 91.875 195.109375 L 91.59375 195.390625 C 109.3125 144.527344 150.300781 105.179688 201.84375 89.546875 C 206.074219 88.28125 208.46875 83.824219 207.203125 79.59375 C 206.253906 76.417969 203.519531 74.277344 200.421875 73.9375 Z M 359.5 118 C 340.445312 118 325.015625 133.445312 325.015625 152.5 C 325.015625 171.554688 340.453125 187.015625 359.5 187.015625 C 364.410156 187.015625 369.066406 185.949219 373.296875 184.09375 L 347.984375 157.9375 C 347.457031 157.394531 347.171875 156.652344 347.203125 155.890625 C 347.226562 155.128906 347.574219 154.410156 348.140625 153.90625 L 380.28125 125.125 C 374.488281 120.71875 367.339844 118 359.5 118 Z M 384.5 128.84375 L 354.03125 156.140625 L 378.390625 181.3125 C 387.773438 175.144531 393.984375 164.570312 393.984375 152.5 C 393.984375 143.316406 390.347656 135.027344 384.5 128.84375 Z M 383.859375 145.21875 C 384.9375 145.152344 386 145.71875 386.515625 146.75 C 386.660156 147.046875 390.074219 154.097656 385.5 163.25 C 385.011719 164.234375 384.023438 164.796875 383 164.796875 C 382.585938 164.796875 382.148438 164.699219 381.75 164.5 C 380.367188 163.8125 379.804688 162.140625 380.5 160.75 C 383.773438 154.214844 381.589844 149.417969 381.5 149.21875 C 380.84375 147.835938 381.421875 146.171875 382.796875 145.5 C 383.140625 145.332031 383.5 145.242188 383.859375 145.21875 Z M 315.265625 173.265625 C 310.121094 173.488281 304.285156 174.734375 298 177 C 273 186 243 219 243 219 L 218.9375 246.90625 L 238.6875 266.3125 L 328.359375 175.703125 C 324.859375 173.855469 320.410156 173.042969 315.265625 173.265625 Z M 332.8125 179.171875 L 242.671875 270.25 L 254.3125 281.703125 L 322 213.046875 C 322.199219 212.855469 336.796875 198.449219 336.078125 185.65625 C 335.414062 183.121094 334.332031 180.925781 332.8125 179.171875 Z M 334.171875 207.015625 C 330.285156 212.71875 326.28125 216.6875 325.9375 217.015625 L 258.296875 285.609375 L 267.28125 294.453125 C 268.191406 293.621094 269.074219 292.847656 269.984375 292 C 318.726562 246.800781 328.988281 227.519531 334.171875 207.015625 Z M 215.265625 251.15625 L 193 277 L 233.828125 269.40625 Z M 237.765625 273.265625 L 223.703125 287.828125 L 248.671875 283.984375 Z M 253.640625 288.890625 L 217.28125 294.484375 L 150.625 363.46875 L 178.59375 390.96875 L 180 391 L 173 362 C 173 362 211.566406 344.484375 263.140625 298.203125 Z M 413.9375 296.96875 C 410.871094 297.527344 408.296875 299.859375 407.578125 303.09375 C 406.675781 307.148438 409.015625 311.230469 412.984375 312.46875 L 428.421875 316.59375 C 432.734375 317.554688 437.007812 314.84375 437.96875 310.53125 C 438.871094 306.476562 436.515625 302.394531 432.546875 301.15625 L 417.125 297.03125 C 416.046875 296.792969 414.960938 296.78125 413.9375 296.96875 Z M 400.34375 334.625 C 397.238281 334.351562 394.125 335.921875 392.578125 338.84375 C 390.609375 342.554688 391.855469 347.160156 395.421875 349.375 L 409.265625 357.34375 C 413.121094 359.542969 418.035156 358.199219 420.234375 354.34375 C 422.433594 350.488281 421.089844 345.574219 417.234375 343.375 L 403.390625 335.53125 C 402.414062 335.011719 401.378906 334.714844 400.34375 334.625 Z M 374.65625 366.65625 C 372.609375 366.65625 370.578125 367.441406 369.015625 369 C 365.894531 372.121094 365.894531 377.175781 369.015625 380.296875 L 380.3125 391.609375 C 383.433594 394.730469 388.488281 394.730469 391.609375 391.609375 C 394.730469 388.488281 394.730469 383.417969 391.609375 380.296875 L 380.3125 369 C 378.753906 367.441406 376.703125 366.65625 374.65625 366.65625 Z M 146.734375 367.5 L 125 390 L 170.46875 390.828125 Z M 341.359375 391.5 C 340.332031 391.628906 339.328125 391.964844 338.375 392.515625 C 334.574219 394.738281 333.277344 399.628906 335.484375 403.4375 L 343.40625 417.21875 C 345.476562 421.121094 350.308594 422.601562 354.203125 420.53125 C 358.105469 418.460938 359.585938 413.628906 357.515625 409.734375 C 357.425781 409.574219 357.347656 409.402344 357.25 409.25 L 349.28125 395.40625 C 347.613281 392.550781 344.441406 391.109375 341.359375 391.5 Z M 305.890625 407.09375 C 304.863281 406.945312 303.800781 406.988281 302.734375 407.265625 C 302.71875 407.273438 302.710938 407.265625 302.703125 407.265625 C 298.4375 408.402344 295.886719 412.796875 297.03125 417.0625 C 297.039062 417.078125 297.039062 417.085938 297.046875 417.109375 L 301.171875 432.546875 C 302.492188 436.761719 306.980469 439.101562 311.1875 437.78125 C 315.15625 436.542969 317.511719 432.476562 316.609375 428.421875 L 312.484375 412.984375 C 311.648438 409.78125 308.972656 407.542969 305.890625 407.09375 Z M 305.890625 407.09375 "/>
</g>
</svg>
