<?xml version="1.0" encoding="UTF-8"?>
<svg xmlns="http://www.w3.org/2000/svg" xmlns:xlink="http://www.w3.org/1999/xlink" viewBox="0 0 512 512" width="512px" height="512px">
<g id="surface52910210">
<path style=" stroke:none;fill-rule:nonzero;fill:rgb(100%,100%,100%);fill-opacity:1;" d="M 100.546875 32 C 91.523438 32 82.511719 34.683594 74.65625 40.796875 C 62.65625 48.796875 56 62.132812 56 76.796875 L 56 248 C 56 252.414062 59.585938 256 64 256 C 68.414062 256 72 252.414062 72 248 L 72 76.796875 C 72 67.269531 76.210938 58.996094 83.546875 54.109375 L 84.03125 53.78125 L 84.5 53.421875 C 89.117188 49.828125 94.523438 48 100.546875 48 C 103.660156 48 106.859375 48.488281 109.875 49.390625 L 419.890625 146.796875 C 436.617188 152.054688 448 167.566406 448 185.09375 L 448 401.21875 C 448 418.128906 434.316406 431.890625 417.5 431.890625 C 414.507812 431.890625 411.492188 431.433594 408.546875 430.546875 C 393.988281 426.140625 378.46875 421.390625 362.390625 416.453125 C 357.246094 414.867188 352 418.71875 352 424.09375 C 352 427.605469 354.328125 430.71875 357.6875 431.75 C 373.757812 436.695312 389.296875 441.433594 403.90625 445.859375 C 408.464844 447.234375 413.035156 447.890625 417.5 447.890625 C 442.339844 447.890625 464 427.738281 464 401.21875 L 464 185.09375 C 464 160.574219 448.085938 138.882812 424.6875 131.53125 L 114.65625 34.125 C 110.054688 32.742188 105.308594 32 100.546875 32 Z M 368 176 C 363.585938 176 360 179.585938 360 184 C 360 188.414062 363.585938 192 368 192 L 384 192 C 388.414062 192 392 188.414062 392 184 C 392 179.585938 388.414062 176 384 176 Z M 309.5 184.046875 C 293.355469 183.199219 280 196.039062 280 212 L 280 450.9375 C 280 466.097656 291.355469 479.691406 306.5 480.484375 C 322.644531 481.332031 336 468.476562 336 452.515625 L 336 213.578125 C 336 198.417969 324.644531 184.839844 309.5 184.046875 Z M 308 200 C 314.617188 200 320 205.382812 320 212 L 320 452.515625 C 320 459.132812 314.617188 464.515625 308 464.515625 C 301.382812 464.515625 296 459.132812 296 452.515625 L 296 212 C 296 205.382812 301.382812 200 308 200 Z M 228 216 C 212.535156 216 200 228.535156 200 244 L 200 428 C 200 443.464844 212.535156 456 228 456 C 243.464844 456 256 443.464844 256 428 L 256 244 C 256 228.535156 243.464844 216 228 216 Z M 368 216 C 363.585938 216 360 219.585938 360 224 C 360 228.414062 363.585938 232 368 232 L 384 232 C 388.414062 232 392 228.414062 392 224 C 392 219.585938 388.414062 216 384 216 Z M 228 232 C 234.617188 232 240 237.382812 240 244 L 240 428 C 240 434.617188 234.617188 440 228 440 C 221.382812 440 216 434.617188 216 428 L 216 244 C 216 237.382812 221.382812 232 228 232 Z M 148 248 C 132.535156 248 120 260.535156 120 276 L 120 396 C 120 411.464844 132.535156 424 148 424 C 163.464844 424 176 411.464844 176 396 L 176 276 C 176 260.535156 163.464844 248 148 248 Z M 368 256 C 363.585938 256 360 259.585938 360 264 C 360 268.414062 363.585938 272 368 272 L 384 272 C 388.414062 272 392 268.414062 392 264 C 392 259.585938 388.414062 256 384 256 Z M 148 264 C 154.617188 264 160 269.382812 160 276 L 160 396 C 160 402.617188 154.617188 408 148 408 C 141.382812 408 136 402.617188 136 396 L 136 276 C 136 269.382812 141.382812 264 148 264 Z M 68 272 C 52.535156 272 40 284.535156 40 300 L 40 362.421875 C 40 377.582031 51.355469 391.160156 66.5 391.953125 C 82.644531 392.800781 96 379.960938 96 364 L 96 300 C 96 284.535156 83.464844 272 68 272 Z M 68 288 C 74.617188 288 80 293.382812 80 300 L 80 364 C 80 370.617188 74.617188 376 68 376 C 61.382812 376 56 370.617188 56 364 L 56 300 C 56 293.382812 61.382812 288 68 288 Z M 368 296 C 363.585938 296 360 299.585938 360 304 C 360 308.414062 363.585938 312 368 312 L 384 312 C 388.414062 312 392 308.414062 392 304 C 392 299.585938 388.414062 296 384 296 Z M 368 336 C 363.585938 336 360 339.585938 360 344 C 360 348.414062 363.585938 352 368 352 L 384 352 C 388.414062 352 392 348.414062 392 344 C 392 339.585938 388.414062 336 384 336 Z M 368 376 C 363.585938 376 360 379.585938 360 384 C 360 388.414062 363.585938 392 368 392 L 384 392 C 388.414062 392 392 388.414062 392 384 C 392 379.585938 388.414062 376 384 376 Z M 368 376 "/>
</g>
</svg>
