<?xml version="1.0" encoding="UTF-8"?>
<svg xmlns="http://www.w3.org/2000/svg" viewBox="0 0 512 512" width="512px" height="512px">
<g id="surface5436477">
<path style=" stroke:none;fill-rule:nonzero;fill:rgb(100%,100%,100%);fill-opacity:1;" d="M 402.0625 10.40625 C 400.042969 10.75 398.15625 11.855469 396.875 13.65625 L 387.609375 26.71875 C 385.050781 30.328125 385.898438 35.316406 389.5 37.875 C 390.90625 38.875 392.523438 39.359375 394.125 39.359375 C 396.628906 39.359375 399.089844 38.175781 400.65625 35.984375 L 409.921875 22.9375 C 412.480469 19.328125 411.648438 14.339844 408.046875 11.78125 C 406.238281 10.496094 404.082031 10.0625 402.0625 10.40625 Z M 164.609375 41.421875 C 154.3125 41.105469 144.589844 43.183594 136 48.140625 C 122.257812 56.074219 113.4375 70.242188 109 87.5625 C 104.5625 104.882812 104.183594 125.671875 107.25 148.90625 C 108.253906 156.523438 109.769531 164.492188 111.515625 172.59375 C 103.632812 175.128906 95.980469 177.785156 88.890625 180.71875 C 67.234375 189.679688 49.421875 200.402344 36.640625 212.90625 C 23.859375 225.410156 16 240.132812 16 256 C 16 271.867188 23.859375 286.589844 36.640625 299.09375 C 49.421875 311.597656 67.234375 322.320312 88.890625 331.28125 C 95.980469 334.214844 103.632812 336.871094 111.515625 339.40625 C 109.769531 347.507812 108.253906 355.460938 107.25 363.078125 C 104.183594 386.3125 104.5625 407.101562 109 424.421875 C 113.4375 441.742188 122.257812 455.910156 136 463.84375 C 149.742188 471.777344 166.421875 472.332031 183.640625 467.515625 C 200.859375 462.699219 219.050781 452.632812 237.640625 438.359375 C 243.730469 433.683594 249.859375 428.390625 256 422.828125 C 262.140625 428.386719 268.269531 433.683594 274.359375 438.359375 C 292.949219 452.632812 311.140625 462.699219 328.359375 467.515625 C 345.578125 472.332031 362.257812 471.777344 376 463.84375 C 389.742188 455.910156 398.5625 441.742188 403 424.421875 C 407.4375 407.101562 407.816406 386.3125 404.75 363.078125 C 403.746094 355.472656 402.226562 347.511719 400.484375 339.421875 C 408.367188 336.886719 416.015625 334.214844 423.109375 331.28125 C 444.765625 322.320312 462.578125 311.597656 475.359375 299.09375 C 488.140625 286.589844 496 271.867188 496 256 C 496 240.132812 488.140625 225.410156 475.359375 212.90625 C 462.578125 200.402344 444.765625 189.679688 423.109375 180.71875 C 416.015625 177.785156 408.367188 175.113281 400.484375 172.578125 C 402.230469 164.484375 403.746094 156.527344 404.75 148.921875 C 407.816406 125.6875 407.4375 104.898438 403 87.578125 C 398.5625 70.257812 389.742188 56.089844 376 48.15625 C 362.257812 40.222656 345.578125 39.667969 328.359375 44.484375 C 311.140625 49.300781 292.949219 59.367188 274.359375 73.640625 C 268.269531 78.316406 262.140625 83.613281 256 89.171875 C 249.859375 83.609375 243.730469 78.300781 237.640625 73.625 C 219.050781 59.351562 200.859375 49.285156 183.640625 44.46875 C 177.183594 42.664062 170.789062 41.613281 164.609375 41.421875 Z M 431.21875 43.28125 C 430.183594 43.367188 429.148438 43.660156 428.171875 44.171875 L 414 51.59375 C 410.089844 53.648438 408.570312 58.503906 410.625 62.40625 C 412.058594 65.140625 414.839844 66.6875 417.71875 66.6875 C 418.964844 66.6875 420.238281 66.398438 421.421875 65.78125 L 435.59375 58.34375 C 439.503906 56.289062 441.023438 51.449219 438.96875 47.546875 C 437.425781 44.605469 434.324219 43.023438 431.21875 43.28125 Z M 164.234375 57.375 C 168.886719 57.539062 173.921875 58.378906 179.328125 59.890625 C 193.742188 63.921875 210.425781 72.929688 227.875 86.328125 C 233.289062 90.484375 238.804688 95.203125 244.328125 100.171875 C 228.5 115.886719 212.800781 134.402344 197.75 155.109375 C 172.292969 157.789062 148.414062 162.136719 126.890625 167.984375 C 125.347656 160.714844 124.019531 153.582031 123.125 146.8125 C 120.246094 125.003906 120.785156 106.046875 124.5 91.546875 C 128.214844 77.046875 134.78125 67.320312 144 62 C 149.761719 58.675781 156.476562 57.101562 164.234375 57.375 Z M 347.75 57.390625 C 355.507812 57.117188 362.238281 58.691406 368 62.015625 C 377.21875 67.335938 383.785156 77.046875 387.5 91.546875 C 391.214844 106.046875 391.738281 125.019531 388.859375 146.828125 C 387.964844 153.597656 386.652344 160.714844 385.109375 167.984375 C 363.585938 162.136719 339.707031 157.789062 314.25 155.109375 C 299.203125 134.402344 283.5 115.902344 267.671875 100.1875 C 273.195312 95.21875 278.695312 90.5 284.109375 86.34375 C 301.558594 72.945312 318.242188 63.921875 332.65625 59.890625 C 338.0625 58.378906 343.097656 57.554688 347.75 57.390625 Z M 443.375 84.078125 L 427.546875 86.453125 C 423.179688 87.109375 420.171875 91.195312 420.828125 95.5625 C 421.429688 99.539062 424.839844 102.375 428.734375 102.375 C 429.125 102.375 429.515625 102.335938 429.921875 102.28125 L 445.75 99.90625 C 450.117188 99.25 453.140625 95.179688 452.484375 90.8125 C 451.828125 86.453125 447.757812 83.503906 443.375 84.078125 Z M 256 111.171875 C 268.386719 123.453125 280.824219 137.589844 292.953125 153.3125 C 280.878906 152.527344 268.601562 152 256 152 C 243.390625 152 231.109375 152.527344 219.03125 153.3125 C 231.164062 137.585938 243.609375 123.453125 256 111.171875 Z M 430.65625 124.84375 C 426.265625 124.597656 422.449219 127.953125 422.203125 132.359375 C 421.9375 136.773438 425.320312 140.566406 429.734375 140.8125 L 445.703125 141.734375 C 445.863281 141.742188 446.011719 141.75 446.171875 141.75 C 450.371094 141.75 453.894531 138.449219 454.140625 134.203125 C 454.40625 129.789062 451.039062 126.011719 446.625 125.765625 Z M 256 168 C 273.015625 168 289.546875 168.835938 305.484375 170.296875 C 314.71875 183.367188 323.695312 197.265625 332.203125 212 C 340.714844 226.738281 348.265625 241.460938 354.96875 256 C 348.265625 270.539062 340.714844 285.261719 332.203125 300 C 323.695312 314.734375 314.71875 328.632812 305.484375 341.703125 C 289.546875 343.164062 273.015625 344 256 344 C 238.984375 344 222.453125 343.164062 206.515625 341.703125 C 197.277344 328.628906 188.292969 314.738281 179.78125 300 C 171.269531 285.261719 163.734375 270.523438 157.03125 255.984375 C 163.730469 241.457031 171.277344 226.730469 179.78125 212 C 188.292969 197.261719 197.277344 183.371094 206.515625 170.296875 C 222.453125 168.835938 238.984375 168 256 168 Z M 185.546875 172.640625 C 178.828125 182.707031 172.226562 193.082031 165.921875 204 C 159.621094 214.910156 153.949219 225.8125 148.59375 236.65625 C 141.042969 218.289062 135.019531 200.460938 130.578125 183.59375 C 147.410156 179.003906 165.863281 175.285156 185.546875 172.640625 Z M 326.4375 172.640625 C 346.125 175.285156 364.585938 179.003906 381.421875 183.59375 C 376.980469 200.464844 370.957031 218.304688 363.40625 236.671875 C 358.046875 225.816406 352.367188 214.917969 346.0625 204 C 339.761719 193.085938 333.15625 182.703125 326.4375 172.640625 Z M 115.21875 188.203125 C 120.914062 209.769531 129.089844 232.613281 139.5 256 C 129.089844 279.386719 120.914062 302.230469 115.21875 323.796875 C 108.15625 321.5 101.324219 319.09375 95.015625 316.484375 C 74.6875 308.074219 58.527344 298.121094 47.828125 287.65625 C 37.128906 277.191406 32 266.644531 32 256 C 32 245.355469 37.128906 234.808594 47.828125 224.34375 C 58.527344 213.878906 74.6875 203.925781 95.015625 195.515625 C 101.324219 192.90625 108.15625 190.5 115.21875 188.203125 Z M 396.765625 188.203125 C 403.835938 190.503906 410.671875 192.902344 416.984375 195.515625 C 437.3125 203.925781 453.472656 213.878906 464.171875 224.34375 C 474.871094 234.808594 480 245.355469 480 256 C 480 266.644531 474.871094 277.191406 464.171875 287.65625 C 453.472656 298.121094 437.3125 308.074219 416.984375 316.484375 C 410.675781 319.09375 403.84375 321.5 396.78125 323.796875 C 391.085938 302.230469 382.894531 279.386719 372.484375 256 C 382.890625 232.617188 391.070312 209.765625 396.765625 188.203125 Z M 256 200 C 225.167969 200 200 225.167969 200 256 C 200 286.832031 225.167969 312 256 312 C 286.832031 312 312 286.832031 312 256 C 312 225.167969 286.832031 200 256 200 Z M 256 216 C 278.1875 216 296 233.8125 296 256 C 296 278.1875 278.1875 296 256 296 C 233.8125 296 216 278.1875 216 256 C 216 233.8125 233.8125 216 256 216 Z M 363.40625 275.328125 C 370.957031 293.695312 376.980469 311.535156 381.421875 328.40625 C 364.585938 332.996094 346.125 336.714844 326.4375 339.359375 C 333.15625 329.296875 339.761719 318.914062 346.0625 308 C 352.367188 297.082031 358.046875 286.183594 363.40625 275.328125 Z M 148.59375 275.34375 C 153.949219 286.1875 159.625 297.089844 165.921875 308 C 172.226562 318.917969 178.828125 329.292969 185.546875 339.359375 C 165.863281 336.714844 147.410156 332.996094 130.578125 328.40625 C 135.019531 311.539062 141.042969 293.710938 148.59375 275.34375 Z M 126.890625 344.015625 C 148.414062 349.863281 172.292969 354.210938 197.75 356.890625 C 212.800781 377.597656 228.5 396.113281 244.328125 411.828125 C 238.804688 416.796875 233.289062 421.5 227.875 425.65625 C 210.425781 439.054688 193.742188 448.078125 179.328125 452.109375 C 164.914062 456.140625 153.21875 455.320312 144 450 C 134.78125 444.679688 128.199219 434.953125 124.484375 420.453125 C 120.769531 405.953125 120.246094 386.980469 123.125 365.171875 C 124.019531 358.402344 125.347656 351.285156 126.890625 344.015625 Z M 385.109375 344.015625 C 386.652344 351.285156 387.964844 358.402344 388.859375 365.171875 C 391.738281 386.980469 391.214844 405.953125 387.5 420.453125 C 383.785156 434.953125 377.21875 444.664062 368 449.984375 C 358.78125 455.304688 347.085938 456.140625 332.671875 452.109375 C 318.257812 448.078125 301.558594 439.054688 284.109375 425.65625 C 278.695312 421.5 273.195312 416.78125 267.671875 411.8125 C 283.5 396.097656 299.203125 377.597656 314.25 356.890625 C 339.707031 354.210938 363.585938 349.863281 385.109375 344.015625 Z M 68.890625 349.734375 C 64.484375 349.140625 60.480469 352.226562 59.90625 356.609375 C 59.3125 360.992188 62.398438 365.007812 66.78125 365.59375 L 82.640625 367.703125 C 83 367.75 83.351562 367.78125 83.703125 367.78125 C 87.65625 367.78125 91.097656 364.84375 91.625 360.828125 C 92.21875 356.445312 89.132812 352.429688 84.75 351.84375 Z M 219.03125 358.6875 C 231.109375 359.472656 243.390625 360 256 360 C 268.601562 360 280.878906 359.472656 292.953125 358.6875 C 280.824219 374.410156 268.386719 388.546875 256 400.828125 C 243.609375 388.546875 231.164062 374.414062 219.03125 358.6875 Z M 81.28125 390.546875 L 65.296875 391.09375 C 60.871094 391.238281 57.410156 394.929688 57.5625 399.34375 C 57.707031 403.671875 61.257812 407.078125 65.546875 407.078125 C 65.644531 407.078125 65.75 407.085938 65.828125 407.078125 L 81.8125 406.53125 C 86.238281 406.386719 89.699219 402.695312 89.546875 398.28125 C 89.402344 393.855469 85.6875 390.25 81.28125 390.546875 Z M 88.203125 428.09375 C 87.167969 427.988281 86.105469 428.089844 85.046875 428.421875 L 69.734375 433.09375 C 65.511719 434.382812 63.132812 438.855469 64.421875 443.078125 C 65.46875 446.527344 68.644531 448.75 72.078125 448.75 C 72.847656 448.75 73.621094 448.628906 74.40625 448.390625 L 89.71875 443.71875 C 93.941406 442.429688 96.328125 437.957031 95.03125 433.734375 C 94.070312 430.566406 91.308594 428.410156 88.203125 428.09375 Z M 105.15625 460.421875 C 103.117188 460.269531 101.015625 460.878906 99.34375 462.3125 L 87.203125 472.75 C 83.851562 475.621094 83.472656 480.679688 86.34375 484.03125 C 87.929688 485.878906 90.175781 486.8125 92.421875 486.8125 C 94.269531 486.8125 96.121094 486.171875 97.625 484.875 L 109.765625 474.453125 C 113.117188 471.582031 113.496094 466.523438 110.625 463.171875 C 109.179688 461.496094 107.195312 460.574219 105.15625 460.421875 Z M 105.15625 460.421875 "/>
</g>
</svg>
