<?xml version="1.0" encoding="UTF-8"?>
<svg xmlns="http://www.w3.org/2000/svg" viewBox="0 0 384 384" width="384px" height="384px">
<g id="surface5452730">
<path style=" stroke:none;fill-rule:nonzero;fill:rgb(100%,100%,100%);fill-opacity:1;" d="M 184 32 C 134.65625 32 96 89.316406 96 162.46875 C 96 195.492188 104.253906 224.796875 117.46875 247.5 C 116.605469 250.203125 116 253.023438 116 256 C 116 271.457031 128.542969 284 144 284 C 159.457031 284 172 271.457031 172 256 C 172 240.542969 159.457031 228 144 228 C 143.695312 228 143.398438 228.078125 143.09375 228.09375 C 133.894531 210.507812 128 187.589844 128 162.46875 C 128 109.09375 153.648438 64 184 64 C 204.574219 64 222.960938 84.75 232.6875 114.71875 C 244.574219 116.621094 256.425781 119.875 268.21875 123.9375 C 257.371094 70.160156 224.257812 32 184 32 Z M 182 136 C 166.542969 136 154 148.542969 154 164 C 154 179.457031 166.542969 192 182 192 C 192.992188 192 202.40625 185.621094 207 176.40625 C 227.6875 177.335938 250.710938 183.332031 272.4375 195.09375 C 303.796875 212.085938 327.453125 238.164062 334.125 263.1875 C 337.566406 276.035156 336.339844 287.328125 330.5625 296.71875 C 319.074219 315.40625 291.625 322.890625 260.3125 318.9375 C 251.046875 328.394531 240.472656 337.082031 229 344.9375 C 245 349.609375 260.851562 352.03125 275.78125 352.03125 C 311.523438 352.03125 342.132812 338.988281 357.8125 313.5 C 368.246094 296.539062 370.742188 276.296875 365.03125 254.9375 C 356.007812 221.226562 327.0625 188.3125 287.65625 166.96875 C 258.871094 151.367188 228.917969 144.105469 201.8125 144.21875 C 196.742188 139.128906 189.742188 136 182 136 Z M 65.5625 187.875 C 42.203125 207.21875 25.449219 230.824219 19 254.9375 C 13.289062 276.296875 15.785156 296.539062 26.21875 313.46875 C 41.867188 338.957031 72.488281 352 108.25 352 C 135.320312 352 165.328125 344.582031 194 329.03125 C 221.359375 314.214844 243.464844 293.804688 257.5625 271.4375 C 270.363281 268.863281 280 257.550781 280 244 C 280 228.542969 267.457031 216 252 216 C 236.542969 216 224 228.542969 224 244 C 224 249.214844 225.535156 254.058594 228.03125 258.25 C 216.71875 274.488281 199.5 289.691406 178.78125 300.90625 C 128.878906 327.929688 71.453125 326 53.4375 296.6875 C 47.660156 287.296875 46.464844 276.035156 49.90625 263.1875 C 53.394531 250.148438 61.5625 236.816406 72.96875 224.625 C 69.480469 213.023438 67.003906 200.722656 65.5625 187.875 Z M 65.5625 187.875 "/>
</g>
</svg>
